<svg xmlns="http://www.w3.org/2000/svg" viewBox="0 0 841.9 595.3">
    <g fill="#61DAFB">
        <path d="M666.3 296.5c0-32.5-40.7-63.3-103.1-82.4 14.4-63.6 8-114.2-20.2-130.4-6.5-3.8-14.1-5.6-22.4-5.6v22.3c4.6 0 8.3.9 11.4 2.6 13.6 7.8 19.5 37.5 14.9 75.7-1.1 9.4-2.9 19.3-5.1 29.4-19.6-4.8-41-8.5-63.5-10.9-13.5-38.5-27.5-73.5-42.3-101.9-10.7-20.5-21.9-35.9-32.7-44.4-6.6-5.2-13-8-19.1-8.5-13.3-.8-24.8 6.4-32.1 20.3-4.2 8.1-6.4 18.2-6.5 29.8h22.3c0-8.1 1.4-14.5 3.9-19.5 3.7-7 8.3-10.1 12.3-9.9 2 .1 4.5.8 7.3 3 7.8 6.2 17.6 19.3 27.2 37.6 13.6 26 26.8 58.7 39.5 94.7-22-1.9-44.9-2.9-68.2-2.9-24.3 0-48.2 1.1-71.2 3.2-12.2-34-24.4-64.8-36.5-88.7-9.4-18.4-18.7-32.4-27.4-38.9-6.9-5.2-12.8-6.1-17.1-5.5-13.3 2-21.2 14.2-22.1 32.7-.2 4.1.2 8.5 1.2 13.2 1.5 7.1 4.3 15 8.1 23.3h22.7c-9.6-18.6-13-31.5-11-38.2 2-6.8 8.6-10.3 12.8-10.9 2-.3 4.8.1 8 2.5 6.7 5 14.8 16.5 23.5 33.6 11.2 22.1 22.4 51.1 33.7 82.6-61.9 19-102.1 49.3-102.1 81.3 0 32.5 40.7 63.3 103.1 82.4-14.4 63.6-8 114.2 20.2 130.4 6.5 3.8 14.1 5.6 22.4 5.6V567c-4.6 0-8.3-.9-11.4-2.6-13.6-7.8-19.5-37.5-14.9-75.7 1.1-9.4 2.9-19.3 5.1-29.4 19.6 4.8 41 8.5 63.5 10.9 13.5 38.5 27.5 73.5 42.3 101.9 10.7 20.5 21.9 35.9 32.7 44.4 6.6 5.2 13 8 19.1 8.5 13.3.8 24.8-6.4 32.1-20.3 4.2-8.1 6.4-18.2 6.5-29.8h-22.3c0 8.1-1.4 14.5-3.9 19.5-3.7 7-8.3 10.1-12.3 9.9-2-.1-4.5-.8-7.3-3-7.8-6.2-17.6-19.3-27.2-37.6-13.6-26-26.8-58.7-39.5-94.7 22 1.9 44.9 2.9 68.2 2.9 24.3 0 48.2-1.1 71.2-3.2 12.2 34 24.4 64.8 36.5 88.7 9.4 18.4 18.7 32.4 27.4 38.9 6.9 5.2 12.8 6.1 17.1 5.5 13.3-2 21.2-14.2 22.1-32.7.2-4.1-.2-8.5-1.2-13.2-1.5-7.1-4.3-15-8.1-23.3h-22.7c9.6 18.6 13 31.5 11 38.2-2 6.8-8.6 10.3-12.8 10.9-2 .3-4.8-.1-8-2.5-6.7-5-14.8-16.5-23.5-33.6-11.2-22.1-22.4-51.1-33.7-82.6 61.9-19 102.1-49.3 102.1-81.3zM420.9 369c-39.8 0-72.1-32.4-72.1-72.4 0-40.2 32.3-72.4 72.1-72.4s72.1 32.3 72.1 72.4c0 40-32.3 72.4-72.1 72.4z"/>
    </g>
</svg>
